# xmcd
#
# Track frame offsets:
# 150
# 27964
# 48796
# 68644
# 91372
# 120397
#
# Disc length: 1941 seconds
#
# Revision: 0
# Processed by: cddbd v1.5.2PL0 Copyright (c) Steve Scherf et al.
# Submitted via: Audion 3.0.2 (http://www.panic.com/audion/)
#
DISCID=40079306
DTITLE=T For Texas - Festival Blues delle Terre Matildiche, Bibbiano, 2007
DYEAR=1900
DGENRE=
TTITLE0=01
TTITLE1=02
TTITLE2=03
TTITLE3=04
TTITLE4=05
TTITLE5=06
EXTD=
EXTT0=
EXTT1=
EXTT2=
EXTT3=
EXTT4=
EXTT5=
PLAYORDER=
